# xmcd CD database file
#
# Track frame offsets:
#	150
#	13332
#	29465
#	40727
#	57910
#	69297
#	90725
#	101540
#	122410
#	137630
#	150972
#	165275
#	174885
#	190030
#
# Disc length: 2783 seconds
#
# Revision: 0
# Processed by: cddbd v1.4PL0 Copyright (c) Steve Scherf et al.
# Submitted via: CDex 1.50Beta7
#
DISCID=a00add0e
DTITLE=Domino Kings - Life and 20
DYEAR=2000
DGENRE=Country
TTITLE0=Borrow a Lie
TTITLE1=Will He Be
TTITLE2=Where Your Lies Stop
TTITLE3=One More Day
TTITLE4=Alice
TTITLE5=Anything But You
TTITLE6=Deep and Black
TTITLE7=Life and 20
TTITLE8=Don't Be Indifferent
TTITLE9=Time After Time
TTITLE10=Steppin Out Again
TTITLE11=The End of You
TTITLE12=Tied to Trouble
TTITLE13=Letting Go of You
EXTD=YEAR: 2000
EXTT0=
EXTT1=
EXTT2=
EXTT3=
EXTT4=
EXTT5=
EXTT6=
EXTT7=
EXTT8=
EXTT9=
EXTT10=
EXTT11=
EXTT12=
EXTT13=
PLAYORDER=
